<?xml version="1.0" encoding="UTF-8"?>
<svg id="Layer_2" data-name="Layer 2" xmlns="http://www.w3.org/2000/svg" xmlns:xlink="http://www.w3.org/1999/xlink" viewBox="0 0 7.52 5.96">
  <defs>
    <style>
      .cls-1 {
        clip-path: url(#clippath);
      }

      .cls-2, .cls-3 {
        fill: url(#linear-gradient);
      }

      .cls-2, .cls-4 {
        fill-rule: evenodd;
      }

      .cls-5, .cls-4 {
        fill: #bf1f38;
      }

      .cls-3 {
        clip-rule: evenodd;
      }

      .cls-6 {
        fill: url(#linear-gradient-2);
      }
    </style>
    <linearGradient id="linear-gradient" x1="3.8" y1="2.5" x2="3.84" y2="4.04" gradientUnits="userSpaceOnUse">
      <stop offset="0" stop-color="#231f20"/>
      <stop offset="1" stop-color="#bf1f38"/>
    </linearGradient>
    <clipPath id="clippath">
      <path id="SVGID-2" data-name="SVGID" class="cls-3" d="M4.53,3.25h-1.61c.48,0,.88,.39,.88,.88,0,.04,0,.07,0,.1h.96s0-.07,0-.1c0-.32-.08-.62-.22-.88"/>
    </clipPath>
    <linearGradient id="linear-gradient-2" x1="3.8" y1="2.5" x2="3.84" y2="4.04" xlink:href="#linear-gradient"/>
  </defs>
  <g id="Layer_1-2" data-name="Layer 1">
    <g>
      <rect class="cls-5" x="2.3" y="2.29" width="2.78" height=".96"/>
      <polygon class="cls-4" points="4.06 2.77 5.66 0 6.77 0 4.89 3.25 4.06 2.77"/>
      <path class="cls-4" d="M.64,2.74c.3,.32,.72,.51,1.18,.51h1.09c.48,0,.88,.39,.88,.88s-.39,.88-.88,.88H1.83c-.48,0-.88-.39-.88-.88H0c0,1.01,.83,1.83,1.83,1.83h1.08c1.01,0,1.83-.82,1.83-1.83,0-.73-.43-1.36-1.04-1.65-.24-.12-.51-.18-.79-.18H1.82c-.37,0-.67-.3-.67-.67s.3-.67,.67-.67h.99c.37,0,.67,.3,.67,.67h.96c0-.89-.73-1.63-1.63-1.63h-.99C.93,0,.2,.73,.2,1.63c0,.43,.17,.82,.44,1.11"/>
      <g>
        <path id="SVGID" class="cls-2" d="M4.53,3.25h-1.61c.48,0,.88,.39,.88,.88,0,.04,0,.07,0,.1h.96s0-.07,0-.1c0-.32-.08-.62-.22-.88"/>
        <g class="cls-1">
          <rect class="cls-6" x="2.92" y="3.25" width="1.83" height=".98"/>
        </g>
      </g>
      <polygon class="cls-4" points="4.57 2.77 6.41 5.96 7.52 5.96 5.4 2.29 4.57 2.77"/>
    </g>
  </g>
</svg>